<?xml version="1.0" ?><!DOCTYPE svg  PUBLIC '-//W3C//DTD SVG 1.1//EN'  'http://www.w3.org/Graphics/SVG/1.1/DTD/svg11.dtd'><svg height="32px" style="enable-background:new 0 0 32 32;" version="1.1" viewBox="0 0 32 32" width="32px" xml:space="preserve" xmlns="http://www.w3.org/2000/svg" xmlns:xlink="http://www.w3.org/1999/xlink"><g id="_x34__audio_step_forward"><path d="M9.742,5.141c0.508-0.211,1.094-0.094,1.482,0.295l9.5,9.5V5.037c0-0.276,0.225-0.5,0.5-0.5h1.373   c0.275,0,0.5,0.224,0.5,0.5v21.926c0,0.276-0.225,0.5-0.5,0.5h-1.373c-0.275,0-0.5-0.224-0.5-0.5v-9.898l-9.5,9.5   c-0.26,0.26-0.607,0.398-0.961,0.398c-0.176,0-0.354-0.033-0.521-0.104c-0.51-0.211-0.84-0.707-0.84-1.258v-7.76v-3.688V6.398   C8.902,5.848,9.232,5.352,9.742,5.141z"/></g></svg>